<?xml version="1.0" standalone="no"?>
<!DOCTYPE svg PUBLIC "-//W3C//DTD SVG 20010904//EN"
 "http://www.w3.org/TR/2001/REC-SVG-20010904/DTD/svg10.dtd">
<svg version="1.0" xmlns="http://www.w3.org/2000/svg"
 width="403.000000pt" height="282.000000pt" viewBox="0 0 403.000000 282.000000"
 preserveAspectRatio="xMidYMid meet">

<g transform="translate(0.000000,282.000000) scale(0.100000,-0.100000)"
fill="#c23232" stroke="none">
<path d="M1225 2809 c-77 -4 -227 -13 -333 -19 -214 -11 -401 -33 -479 -56
-28 -8 -86 -38 -130 -67 -132 -88 -191 -195 -228 -410 -34 -199 -48 -445 -49
-822 0 -576 36 -911 115 -1073 55 -113 174 -208 309 -246 396 -113 2746 -113
3140 0 165 48 287 167 344 336 53 158 93 696 83 1103 -11 392 -36 657 -78 813
-55 205 -183 331 -384 377 -200 47 -813 75 -1570 73 -330 0 -663 -5 -740 -9z
m715 -555 c255 -75 440 -311 440 -559 0 -148 -58 -283 -170 -396 -246 -249
-650 -251 -896 -5 -230 230 -230 572 0 800 39 39 96 84 126 100 30 16 57 32
60 36 5 5 114 34 170 44 48 9 215 -3 270 -20z m659 -1106 l224 -226 -12 -49
c-17 -67 -35 -90 -78 -102 -87 -24 -81 -28 -303 194 -157 157 -203 208 -195
219 50 70 87 128 100 160 9 20 21 36 28 34 7 -2 113 -105 236 -230z"/>
<path d="M1555 2107 c-68 -33 -105 -59 -151 -105 -68 -70 -136 -194 -117 -213
19 -19 38 -4 80 68 69 116 114 158 220 209 70 34 93 50 91 62 -5 28 -29 24
-123 -21z"/>
</g>
</svg>
